<mxfile host="65bd71144e">
    <diagram id="hlrZCzbPbqaT1ORpPqTB" name="Page-1">
        <mxGraphModel dx="1460" dy="759" grid="1" gridSize="10" guides="1" tooltips="1" connect="1" arrows="1" fold="1" page="1" pageScale="1" pageWidth="850" pageHeight="1100" math="0" shadow="0">
            <root>
                <mxCell id="0"/>
                <mxCell id="1" parent="0"/>
                <mxCell id="12" style="edgeStyle=none;html=1;" edge="1" parent="1" source="2" target="3">
                    <mxGeometry relative="1" as="geometry"/>
                </mxCell>
                <mxCell id="2" value="Start" style="strokeWidth=2;html=1;shape=mxgraph.flowchart.start_1;whiteSpace=wrap;" vertex="1" parent="1">
                    <mxGeometry x="250" y="30" width="100" height="60" as="geometry"/>
                </mxCell>
                <mxCell id="13" style="edgeStyle=none;html=1;" edge="1" parent="1" source="3">
                    <mxGeometry relative="1" as="geometry">
                        <mxPoint x="300" y="230" as="targetPoint"/>
                    </mxGeometry>
                </mxCell>
                <mxCell id="3" value="base, altura" style="shape=parallelogram;html=1;strokeWidth=2;perimeter=parallelogramPerimeter;whiteSpace=wrap;rounded=1;arcSize=12;size=0.23;" vertex="1" parent="1">
                    <mxGeometry x="220" y="130" width="160" height="60" as="geometry"/>
                </mxCell>
                <mxCell id="36" style="edgeStyle=none;html=1;entryX=0.5;entryY=0;entryDx=0;entryDy=0;" edge="1" parent="1" source="7">
                    <mxGeometry relative="1" as="geometry">
                        <mxPoint x="795" y="110" as="targetPoint"/>
                    </mxGeometry>
                </mxCell>
                <mxCell id="7" value="areaR(base, altura)" style="rounded=0;whiteSpace=wrap;html=1;absoluteArcSize=1;arcSize=14;strokeWidth=2;glass=0;" vertex="1" parent="1">
                    <mxGeometry x="720" y="35" width="150" height="50" as="geometry"/>
                </mxCell>
                <mxCell id="8" value="perimetroR(base, altura)" style="rounded=0;whiteSpace=wrap;html=1;absoluteArcSize=1;arcSize=14;strokeWidth=2;glass=0;" vertex="1" parent="1">
                    <mxGeometry x="930" y="35" width="150" height="50" as="geometry"/>
                </mxCell>
                <mxCell id="14" value="&quot;Ingrese la base y la altura: &quot;&lt;div&gt;&lt;br&gt;&lt;/div&gt;" style="strokeWidth=2;html=1;shape=mxgraph.flowchart.document2;whiteSpace=wrap;size=0.25;" vertex="1" parent="1">
                    <mxGeometry x="240" y="290" width="120" height="90" as="geometry"/>
                </mxCell>
                <mxCell id="17" style="edgeStyle=none;html=1;" edge="1" parent="1" source="15">
                    <mxGeometry relative="1" as="geometry">
                        <mxPoint x="300" y="480" as="targetPoint"/>
                    </mxGeometry>
                </mxCell>
                <mxCell id="15" value="&lt;div&gt;&lt;br&gt;&lt;/div&gt;&lt;div&gt;base, altura&lt;/div&gt;" style="html=1;strokeWidth=2;shape=manualInput;whiteSpace=wrap;rounded=1;size=26;arcSize=11;" vertex="1" parent="1">
                    <mxGeometry x="250" y="390" width="100" height="60" as="geometry"/>
                </mxCell>
                <mxCell id="16" value="" style="edgeStyle=none;orthogonalLoop=1;jettySize=auto;html=1;exitX=0.514;exitY=0.877;exitDx=0;exitDy=0;exitPerimeter=0;entryX=0.511;entryY=0.185;entryDx=0;entryDy=0;entryPerimeter=0;" edge="1" parent="1" source="14" target="15">
                    <mxGeometry width="100" relative="1" as="geometry">
                        <mxPoint x="380" y="340" as="sourcePoint"/>
                        <mxPoint x="480" y="340" as="targetPoint"/>
                        <Array as="points"/>
                    </mxGeometry>
                </mxCell>
                <mxCell id="19" style="edgeStyle=none;html=1;entryX=0.5;entryY=0;entryDx=0;entryDy=0;entryPerimeter=0;exitX=0;exitY=0.5;exitDx=0;exitDy=0;exitPerimeter=0;" edge="1" parent="1" source="18" target="25">
                    <mxGeometry relative="1" as="geometry">
                        <mxPoint x="150" y="510" as="targetPoint"/>
                        <Array as="points">
                            <mxPoint x="160" y="510"/>
                        </Array>
                    </mxGeometry>
                </mxCell>
                <mxCell id="20" style="edgeStyle=none;html=1;entryX=0.5;entryY=0;entryDx=0;entryDy=0;entryPerimeter=0;exitX=1;exitY=0.5;exitDx=0;exitDy=0;exitPerimeter=0;" edge="1" parent="1" source="18" target="23">
                    <mxGeometry relative="1" as="geometry">
                        <mxPoint x="460" y="510" as="targetPoint"/>
                        <Array as="points">
                            <mxPoint x="440" y="510"/>
                        </Array>
                    </mxGeometry>
                </mxCell>
                <mxCell id="18" value="base &amp;lt; 0 || altura &amp;lt; 0" style="strokeWidth=2;html=1;shape=mxgraph.flowchart.decision;whiteSpace=wrap;" vertex="1" parent="1">
                    <mxGeometry x="210" y="480" width="180" height="60" as="geometry"/>
                </mxCell>
                <mxCell id="34" style="edgeStyle=none;html=1;" edge="1" parent="1" source="21">
                    <mxGeometry relative="1" as="geometry">
                        <mxPoint x="530" y="250" as="targetPoint"/>
                    </mxGeometry>
                </mxCell>
                <mxCell id="21" value="do" style="rounded=1;whiteSpace=wrap;html=1;absoluteArcSize=1;arcSize=14;strokeWidth=2;" vertex="1" parent="1">
                    <mxGeometry x="250" y="230" width="100" height="40" as="geometry"/>
                </mxCell>
                <mxCell id="22" style="edgeStyle=none;html=1;entryX=0.5;entryY=0;entryDx=0;entryDy=0;entryPerimeter=0;" edge="1" parent="1" source="21" target="14">
                    <mxGeometry relative="1" as="geometry"/>
                </mxCell>
                <mxCell id="27" style="edgeStyle=none;html=1;exitX=0.506;exitY=0.875;exitDx=0;exitDy=0;exitPerimeter=0;" edge="1" parent="1" source="23">
                    <mxGeometry relative="1" as="geometry">
                        <mxPoint x="300" y="680" as="targetPoint"/>
                        <mxPoint x="440" y="650" as="sourcePoint"/>
                        <Array as="points">
                            <mxPoint x="440" y="680"/>
                        </Array>
                    </mxGeometry>
                </mxCell>
                <mxCell id="23" value="&quot;Error: Debe Ingresar Valores Positivos&quot;;&lt;div&gt;&lt;br&gt;&lt;/div&gt;" style="strokeWidth=2;html=1;shape=mxgraph.flowchart.document2;whiteSpace=wrap;size=0.25;" vertex="1" parent="1">
                    <mxGeometry x="380" y="550" width="120" height="90" as="geometry"/>
                </mxCell>
                <mxCell id="26" style="edgeStyle=none;html=1;exitX=0.508;exitY=0.868;exitDx=0;exitDy=0;exitPerimeter=0;" edge="1" parent="1" source="25">
                    <mxGeometry relative="1" as="geometry">
                        <mxPoint x="300" y="680" as="targetPoint"/>
                        <Array as="points">
                            <mxPoint x="160" y="680"/>
                        </Array>
                    </mxGeometry>
                </mxCell>
                <mxCell id="25" value="&lt;div&gt;&quot;Datos Ingresados: &quot;;&lt;/div&gt;&lt;div&gt;&quot;Base: &quot; + base;&lt;/div&gt;&lt;div&gt;&quot;Altura: &quot; + altura;&lt;/div&gt;&lt;div&gt;&lt;br&gt;&lt;/div&gt;" style="strokeWidth=2;html=1;shape=mxgraph.flowchart.document2;whiteSpace=wrap;size=0.25;" vertex="1" parent="1">
                    <mxGeometry x="98" y="550" width="122" height="90" as="geometry"/>
                </mxCell>
                <mxCell id="28" value="" style="edgeStyle=none;orthogonalLoop=1;jettySize=auto;html=1;" edge="1" parent="1">
                    <mxGeometry width="100" relative="1" as="geometry">
                        <mxPoint x="300" y="680" as="sourcePoint"/>
                        <mxPoint x="300" y="730" as="targetPoint"/>
                        <Array as="points"/>
                    </mxGeometry>
                </mxCell>
                <mxCell id="32" style="edgeStyle=none;html=1;entryX=0;entryY=0.5;entryDx=0;entryDy=0;" edge="1" parent="1" source="29" target="21">
                    <mxGeometry relative="1" as="geometry">
                        <Array as="points">
                            <mxPoint x="70" y="760"/>
                            <mxPoint x="70" y="250"/>
                        </Array>
                    </mxGeometry>
                </mxCell>
                <mxCell id="29" value="base &amp;lt; 0 || altura &amp;lt; 0" style="strokeWidth=2;html=1;shape=mxgraph.flowchart.decision;whiteSpace=wrap;" vertex="1" parent="1">
                    <mxGeometry x="200" y="730" width="200" height="50" as="geometry"/>
                </mxCell>
                <mxCell id="30" value="Si" style="text;html=1;align=center;verticalAlign=middle;resizable=0;points=[];autosize=1;strokeColor=none;fillColor=none;" vertex="1" parent="1">
                    <mxGeometry x="395" y="478" width="30" height="30" as="geometry"/>
                </mxCell>
                <mxCell id="31" value="No" style="text;html=1;align=center;verticalAlign=middle;resizable=0;points=[];autosize=1;strokeColor=none;fillColor=none;" vertex="1" parent="1">
                    <mxGeometry x="165" y="478" width="40" height="30" as="geometry"/>
                </mxCell>
                <mxCell id="42" value="" style="edgeStyle=none;html=1;" edge="1" parent="1" source="37" target="41">
                    <mxGeometry relative="1" as="geometry"/>
                </mxCell>
                <mxCell id="37" value="area = 0f;" style="shape=parallelogram;html=1;strokeWidth=2;perimeter=parallelogramPerimeter;whiteSpace=wrap;rounded=1;arcSize=12;size=0.23;" vertex="1" parent="1">
                    <mxGeometry x="700" y="110" width="190" height="60" as="geometry"/>
                </mxCell>
                <mxCell id="41" value="area = base * altura;" style="whiteSpace=wrap;html=1;strokeWidth=2;rounded=1;arcSize=12;" vertex="1" parent="1">
                    <mxGeometry x="720" y="195" width="150" height="110" as="geometry"/>
                </mxCell>
                <mxCell id="43" value="return area" style="strokeWidth=2;html=1;shape=mxgraph.flowchart.start_1;whiteSpace=wrap;" vertex="1" parent="1">
                    <mxGeometry x="745" y="350" width="100" height="60" as="geometry"/>
                </mxCell>
                <mxCell id="44" style="edgeStyle=none;html=1;entryX=0.5;entryY=0;entryDx=0;entryDy=0;entryPerimeter=0;" edge="1" parent="1" source="41" target="43">
                    <mxGeometry relative="1" as="geometry"/>
                </mxCell>
            </root>
        </mxGraphModel>
    </diagram>
</mxfile>